<svg id="Layer_1" data-name="Layer 1" xmlns="http://www.w3.org/2000/svg" viewBox="0 0 29.42 18.4"><defs><style>.cls-1{fill:#e58625;}</style></defs><path class="cls-1" d="M15.14,12.94a19,19,0,0,0-2-1.68A5.48,5.48,0,0,0,5,14.93a5.6,5.6,0,0,0,4.76,6.49,6,6,0,0,0,4.52-1.26,3,3,0,0,0,.7-.8c1.38-2.22,2.67-4.5,4.11-6.68A6.1,6.1,0,0,1,25.37,9.8a5.82,5.82,0,0,1,5.06,4.44,6,6,0,0,1-3.87,7.64,7.46,7.46,0,0,1-4.39,0,4.39,4.39,0,0,1-.61-.25c.17-.28.3-.52.45-.76.38-.58.78-1.16,1.14-1.75a.83.83,0,0,1,1-.48,2.66,2.66,0,0,0,2.77-1.77,2.75,2.75,0,0,0-1.08-3.16,2.91,2.91,0,0,0-3.64,1.06c-1.5,2.21-2.95,4.45-4.48,6.64A8.8,8.8,0,0,1,12.32,25c-4.55,1.07-9.58-2.19-10.78-6.92a9.32,9.32,0,0,1,6.89-11A8.59,8.59,0,0,1,16.72,9.5a.52.52,0,0,1,.1.78C16.23,11.17,15.68,12.08,15.14,12.94Z" transform="translate(-1.29 -6.8)"/></svg>